<?xml version="1.0" encoding="UTF-8" standalone="no"?>
<svg width="71px" height="60px" viewBox="0 0 71 60" version="1.1" xmlns="http://www.w3.org/2000/svg" xmlns:xlink="http://www.w3.org/1999/xlink">
    <!-- Generator: Sketch 44.1 (41455) - http://www.bohemiancoding.com/sketch -->
    <title>暂无内容</title>
    <desc>Created with Sketch.</desc>
    <defs></defs>
    <g id="Page-1" stroke="none" stroke-width="1" fill="none" fill-rule="evenodd">
        <g id="汇款核对-未付款-空" transform="translate(-563.000000, -333.000000)" fill-rule="nonzero" fill="#9B9B9B">
            <g id="暂无内容" transform="translate(563.000000, 333.000000)">
                <path d="M61.7847454,21.2967254 C62.5318228,22.6756008 60.8901742,18.8581313 57.9834866,18.8581313 C57.9834866,18.8581313 14.6922246,18.8750742 13.0159066,18.8750742 C11.3395886,18.8750742 10.1715249,19.7026162 9.19780831,21.2206795 C8.22409174,22.7387428 9.9046473e-05,35.3521334 9.9046473e-05,38.0241848 L9.9046473e-05,55.1623123 C9.9046473e-05,57.8340682 2.19210055,60 4.89572428,60 L66.0874238,60 C68.7909484,60 70.9825537,57.8340682 70.9825537,55.1623123 L70.9825537,38.0241848 C70.9823556,35.3520349 61.7847454,21.2967254 61.7847454,21.2967254 C61.7847454,21.2967254 60.4635418,18.8581313 61.7847454,21.2967254 Z M45.7222846,36.7019498 L45.7222846,36.7023439 C44.1840501,36.7023439 43.6100229,37.7196069 43.3973505,38.3913137 C43.4029967,38.5139526 43.415973,38.6347199 43.415973,38.7588364 C43.415973,43.1293141 39.8530419,46.6723482 35.4582418,46.6723482 C31.0632436,46.6723482 27.5005107,43.1292156 27.5005107,38.7588364 C27.5005107,38.6000461 27.5151709,38.4449004 27.524383,38.2884742 C26.959667,36.7080572 25.2606653,36.7019499 25.2606653,36.7019499 L4.24156103,36.7019499 L11.3593007,23.6587811 C11.3593007,23.6587811 12.6663394,21.3207607 14.5018397,21.3909949 L56.897639,21.3909949 C58.3749543,21.3909949 58.6252678,21.9206572 59.6957618,23.6587811 L66.9298917,36.7019499 L45.7222846,36.7019498 L45.7222846,36.7019498 Z" id="Shape"></path>
                <path d="M20.1686128,12.1535735 C20.1686128,12.1535735 20.1687119,12.153672 20.1686128,12.1535735 L14.7599786,7.04824729 C14.179909,6.50075555 14.1560366,5.58928711 14.7066868,5.01244084 C15.2572378,4.43569301 16.1737994,4.41195328 16.7537699,4.95934652 L16.7537699,4.95934652 L22.1625031,10.0646728 C22.7424737,10.6121645 22.7664451,11.5236329 22.215795,12.1004792 C21.665244,12.6773255 20.7486825,12.7010653 20.1686128,12.1535735 L20.1686128,12.1535735 Z" id="Shape"></path>
                <path d="M35.0716278,9.89780496 C34.8027908,9.64405564 34.6313256,9.28845193 34.6208257,8.89078652 L34.4265777,1.4775825 C34.405776,0.682547227 35.0369583,0.0212819531 35.8363371,0.000497402344 C36.6357158,-0.0201887109 37.3008742,0.607486289 37.3216759,1.40252156 L37.516023,8.81572559 C37.5368247,9.61076086 36.9056423,10.2720261 36.1062636,10.2928107 C35.7064751,10.3032523 35.3403657,10.1514558 35.0716278,9.89780496 L35.0716278,9.89780496 Z" id="Shape"></path>
                <path d="M49.095128,11.8864275 C48.5151574,11.3389358 48.491186,10.4274673 49.041737,9.85062105 L54.1755909,4.47194297 C54.7262411,3.89519514 55.6428026,3.87145541 56.2226741,4.41894721 C56.8027437,4.96643895 56.8267151,5.87790738 56.2761641,6.45465516 L51.1423102,11.8333332 C50.5917592,12.4101795 49.6751976,12.4339192 49.095128,11.8864275 L49.095128,11.8864275 Z" id="Shape"></path>
            </g>
        </g>
    </g>
</svg>